<?xml version="1.0" encoding="iso-8859-1"?>
<!-- Generator: Adobe Illustrator 19.0.0, SVG Export Plug-In . SVG Version: 6.00 Build 0)  -->
<svg version="1.1" id="Layer_1" xmlns="http://www.w3.org/2000/svg" xmlns:xlink="http://www.w3.org/1999/xlink" x="0px" y="0px"
	 viewBox="0 0 512 512" style="enable-background:new 0 0 512 512;" xml:space="preserve">
<g>
	<path style="fill:#38454F;" d="M512,256C512,114.609,397.383,0,256,0S0,114.609,0,256s114.617,256,256,256S512,397.391,512,256"/>
	<path style="fill:#546A79;" d="M459.034,256c0-112.128-90.898-203.034-203.034-203.034S52.966,143.872,52.966,256
		S143.863,459.034,256,459.034S459.034,368.128,459.034,256"/>
	<path style="fill:#232D33;" d="M335.448,256c0-43.882-35.566-79.448-79.448-79.448S176.552,212.118,176.552,256
		c0,43.882,35.566,79.448,79.448,79.448S335.448,299.882,335.448,256"/>
</g>
<g>
</g>
<g>
</g>
<g>
</g>
<g>
</g>
<g>
</g>
<g>
</g>
<g>
</g>
<g>
</g>
<g>
</g>
<g>
</g>
<g>
</g>
<g>
</g>
<g>
</g>
<g>
</g>
<g>
</g>
</svg>
