<?xml version="1.0" encoding="iso-8859-1"?>
<!-- Generator: Adobe Illustrator 18.0.0, SVG Export Plug-In . SVG Version: 6.00 Build 0)  -->
<!DOCTYPE svg PUBLIC "-//W3C//DTD SVG 1.1//EN" "http://www.w3.org/Graphics/SVG/1.1/DTD/svg11.dtd">
<svg version="1.1" id="Capa_1" xmlns="http://www.w3.org/2000/svg" xmlns:xlink="http://www.w3.org/1999/xlink" x="0px" y="0px"
	 viewBox="0 0 486.885 486.885" style="enable-background:new 0 0 486.885 486.885;" xml:space="preserve">
<g>
	<path d="M375.356,314.634c-1.912-13.619-27.241-192.285-48.603-255.589c-6.667-19.753-17.621-34.859-32.559-44.897
		c-13.932-9.362-31-14.119-50.728-14.144c-0.008,0-0.016-0.003-0.024-0.003c-0.022,0-0.044,0.001-0.067,0.001
		c-0.022,0-0.044-0.001-0.067-0.001c-0.008,0-0.016,0.003-0.024,0.003c-19.729,0.025-36.796,4.782-50.728,14.144
		c-14.938,10.038-25.892,25.145-32.558,44.897c-21.383,63.363-46.74,242.308-48.61,255.629c-32.421,8.5-56.413,38.046-56.413,73.096
		c0,41.664,33.896,75.561,75.561,75.561c2.347,0,4.25-1.902,4.25-4.25c0-2.347-1.903-4.25-4.25-4.25
		c-36.978,0-67.061-30.083-67.061-67.061c0-4.872,0.536-9.62,1.528-14.201h69.585c2.347,0,4.25-1.902,4.25-4.25
		c0-2.347-1.903-4.25-4.25-4.25h-67.15c9.325-25.837,34.085-44.358,63.098-44.358c2.347,0,4.25-1.903,4.25-4.25
		c0-2.348-1.903-4.25-4.25-4.25c-3.5,0-6.939,0.259-10.314,0.722c0.581-4.069,1.662-11.546,3.148-21.502h69.904
		c2.347,0,4.25-1.903,4.25-4.25c0-2.348-1.903-4.25-4.25-4.25h-68.627c1.081-7.145,2.316-15.192,3.681-23.897h41.189
		c2.347,0,4.25-1.903,4.25-4.25c0-2.348-1.903-4.25-4.25-4.25h-39.848c9.747-61.394,25.043-149.238,38.384-188.77
		c11.752-34.823,37.797-53.239,75.323-53.262c37.525,0.022,63.572,18.438,75.325,53.262c3.5,10.372,7.135,24.072,10.769,39.746
		h-57.188c-2.347,0-4.25,1.903-4.25,4.25c0,2.348,1.903,4.25,4.25,4.25h59.115c16.336,73.509,32.168,182.192,35.13,202.905
		c-3.331-0.45-6.724-0.704-10.176-0.704c-2.347,0-4.25,1.902-4.25,4.25c0,2.347,1.903,4.25,4.25,4.25
		c36.977,0,67.06,30.083,67.06,67.06c0,36.978-30.083,67.061-67.06,67.061c-2.347,0-4.25,1.903-4.25,4.25
		c0,2.348,1.903,4.25,4.25,4.25c41.664,0,75.56-33.897,75.56-75.561C431.91,352.668,407.85,323.084,375.356,314.634z"/>
	<path d="M233.07,41.696c-0.923-2.158-3.42-3.159-5.579-2.235c-19.396,8.298-33.101,23.972-40.732,46.585
		c-4.809,14.251-10.276,36.443-16.251,65.962c-0.466,2.301,1.022,4.543,3.322,5.009c0.285,0.058,0.568,0.086,0.848,0.086
		c1.98,0,3.753-1.393,4.161-3.408c5.904-29.171,11.278-51.017,15.974-64.931c6.825-20.224,18.944-34.183,36.022-41.488
		C232.992,46.353,233.993,43.854,233.07,41.696z"/>
	<path d="M367.457,434.13c1.163-2.039,0.452-4.635-1.587-5.797c-18.389-10.484-36.108,3.064-42.949,11.738
		c-17.652,21.173-46.271,35.734-74.707,38.007c-31.884,2.551-61.87-10.952-84.444-38.013c-6.882-8.667-24.685-22.213-43.072-11.732
		c-2.039,1.162-2.75,3.758-1.587,5.797c1.162,2.039,3.758,2.75,5.797,1.588c16.657-9.498,31.61,8.886,32.232,9.666
		c0.023,0.028,0.045,0.057,0.068,0.084c22.436,26.916,51.772,41.418,83.352,41.417c2.76,0,5.541-0.11,8.332-0.334
		c31.119-2.486,61.249-17.846,80.599-41.085c0.022-0.025,0.049-0.06,0.07-0.087c0.624-0.786,15.454-19.15,32.101-9.662
		C363.699,436.88,366.295,436.169,367.457,434.13z"/>
</g>
<g>
</g>
<g>
</g>
<g>
</g>
<g>
</g>
<g>
</g>
<g>
</g>
<g>
</g>
<g>
</g>
<g>
</g>
<g>
</g>
<g>
</g>
<g>
</g>
<g>
</g>
<g>
</g>
<g>
</g>
</svg>
