<?xml version="1.0" encoding="iso-8859-1"?>
<!-- Generator: Adobe Illustrator 17.1.0, SVG Export Plug-In . SVG Version: 6.00 Build 0)  -->
<!DOCTYPE svg PUBLIC "-//W3C//DTD SVG 1.1//EN" "http://www.w3.org/Graphics/SVG/1.1/DTD/svg11.dtd">
<svg version="1.1" id="Capa_1" xmlns="http://www.w3.org/2000/svg" xmlns:xlink="http://www.w3.org/1999/xlink" x="0px" y="0px"
	 viewBox="0 0 194.286 194.286" style="enable-background:new 0 0 194.286 194.286;" xml:space="preserve">
<path d="M147.357,110.798c-2.204-6.012-10.344-28.585-21.889-64.867C111.908,3.312,100.359,0,97.143,0S82.378,3.312,68.818,45.931
	c-11.539,36.263-19.684,58.852-21.889,64.867c-8.143,3.51-42.044,19.644-42.524,45.11c-0.123,6.515,1.975,12.019,6.233,16.358
	c8.896,9.066,25.008,10.419,33.82,10.419c2.973,0,4.891-0.157,4.971-0.164c1.9-0.159,3.422-1.636,3.64-3.53
	s-0.933-3.679-2.748-4.264c-5.605-1.808-15.154-6.423-16.914-11.111c-0.301-0.802-0.517-1.937,0.489-3.614
	c0.838-1.396,2.4-3.252,6.275-3.252c7.57,0,17.499,6.769,20.242,11.159c1.128,1.804,2.092,3.558,3.025,5.253
	c3.112,5.657,6.052,11,13.561,15.641c8.008,4.949,16.273,5.483,19.455,5.483c0.304,0,0.536-0.005,0.69-0.01
	c0.153,0.005,0.386,0.01,0.69,0.01c3.182,0,11.447-0.534,19.455-5.483c7.509-4.64,10.449-9.984,13.561-15.641
	c0.933-1.695,1.897-3.449,3.025-5.253c2.743-4.39,12.671-11.159,20.242-11.159c3.875,0,5.437,1.856,6.274,3.252
	c1.007,1.677,0.79,2.813,0.489,3.615c-1.76,4.688-11.309,9.303-16.911,11.109c-1.816,0.583-2.969,2.367-2.752,4.263
	s1.741,3.375,3.642,3.533c0.081,0.006,2,0.164,4.971,0.164c0.001,0,0.001,0,0.002,0c8.813,0,24.922-1.354,33.818-10.419
	c4.259-4.34,6.356-9.844,6.233-16.359C189.401,130.442,155.5,114.308,147.357,110.798z"/>
<g>
</g>
<g>
</g>
<g>
</g>
<g>
</g>
<g>
</g>
<g>
</g>
<g>
</g>
<g>
</g>
<g>
</g>
<g>
</g>
<g>
</g>
<g>
</g>
<g>
</g>
<g>
</g>
<g>
</g>
</svg>
