<?xml version='1.0' encoding='iso-8859-1'?>
<svg version="1.1" xmlns="http://www.w3.org/2000/svg" viewBox="0 0 362.873 362.873" xmlns:xlink="http://www.w3.org/1999/xlink" enable-background="new 0 0 362.873 362.873">
  <g>
    <path d="m149.767,90.56c-3.917-1.34-8.183,0.749-9.524,4.669-11.89,34.76-20.193,76.686-20.193,101.956 0,4.142 3.357,7.5 7.5,7.5s7.5-3.358 7.5-7.5c0-23.801 7.972-63.73 19.387-97.101 1.338-3.919-0.751-8.184-4.67-9.524z"/>
    <path d="m270.055,148.9h-4.795c-6.166-33.158-16.735-67.765-28.694-93.716-16.875-36.618-35.422-55.184-55.129-55.184s-38.255,18.566-55.129,55.184c-11.959,25.951-22.528,60.558-28.694,93.716h-4.795c-26.653,0-48.337,21.684-48.337,48.336v0.825c0,26.653 21.684,48.336 48.337,48.336h14.413c16.441,24.723 44.486,39.913 74.205,39.913s57.764-15.19 74.205-39.913h14.413c26.653,0 48.337-21.684 48.337-48.336v-0.825c0-26.653-21.684-48.336-48.337-48.336zm33.337,49.161c0,18.382-14.955,33.336-33.337,33.336h-18.549c-2.641,0-5.088,1.389-6.44,3.657-13.545,22.702-37.332,36.255-63.629,36.255s-50.084-13.553-63.629-36.255c-1.353-2.268-3.8-3.657-6.44-3.657h-18.55c-18.382,0-33.337-14.955-33.337-33.336v-0.825c0-18.382 14.955-33.336 33.337-33.336h11.077c3.657,0 6.781-2.638 7.394-6.243 11.715-68.893 42.696-142.657 70.148-142.657s58.433,73.764 70.147,142.657c0.612,3.605 3.736,6.243 7.394,6.243h11.077c18.382,0 33.337,14.955 33.337,33.336v0.825z"/>
    <path d="m102.63,265.697c-3.039-2.805-7.773-2.622-10.586,0.409-1.198,1.292-29.349,31.974-29.349,61.92 0,19.215 15.632,34.847 34.847,34.847s34.848-15.632 34.848-34.847c0-34.456-28.545-61.207-29.76-62.329zm-5.088,82.176c-10.943,0-19.847-8.903-19.847-19.847 0-17.138 12.762-35.996 20.175-45.503 7.335,8.605 19.52,25.858 19.52,45.503 1.42109e-14,10.944-8.904,19.847-19.848,19.847z"/>
  </g>
</svg>
